<svg width="551.6px" height="138.8px" xmlns="http://www.w3.org/2000/svg" viewBox="-25.807891845703125 5.599999999999994 551.6157836914062 138.8" style="background: rgb(255, 255, 255)" preserveAspectRatio="xMidYMid"><defs><filter id="editing-hover" x="-100%" y="-100%" width="300%" height="300%"><feFlood flood-color="#b5ccf1" result="flood"></feFlood><feComposite operator="in" in2="SourceAlpha" in="flood" result="shadow"></feComposite><feOffset dx="-2.6" dy="-1.3" in="SourceGraphic" result="offset-1"></feOffset><feOffset dx="2.6" dy="1.3" in="shadow" result="offset-2"></feOffset><feMerge><feMergeNode in="offset-2"></feMergeNode><feMergeNode in="offset-1"></feMergeNode></feMerge></filter></defs><g filter="url(#editing-hover)"><g transform="matrix(1.4,0,0,1.5,2.6,162.8)"><path d="M -16.9 -44 L -16.5 -46.9 L -16.5 -46.9 Q -13.5 -47.5 -12.5 -48.6 L -12.5 -48.6 L -12.5 -48.6 Q -11.4 -49.7 -11.4 -52.4 L -11.4 -52.4 L -11.4 -79.3 L -11.4 -79.3 Q -11.4 -81.4 -11.8 -82.1 L -11.8 -82.1 L -11.8 -82.1 Q -12.3 -82.8 -13.7 -82.8 L -13.7 -82.8 L -16.4 -82.6 L -16.5 -82.9 L -16.1 -85.7 L -16.1 -85.7 Q -15.1 -85.7 -14.5 -85.7 L -14.5 -85.7 L -8.5 -85.5 L -8.5 -85.5 Q -5.6 -85.5 -1.1 -86.1 L -1.1 -86.1 L -1.4 -83.2 L -1.4 -83.2 Q -4 -82.9 -4.9 -82.2 L -4.9 -82.2 L -4.9 -82.2 Q -5.8 -81.4 -6 -79.6 L -6 -79.6 L -6 -79.6 Q -6.4 -72.1 -6.6 -63.9 L -6.6 -63.9 L -6.6 -63.9 Q -6.9 -55.8 -6.9 -51.9 L -6.9 -51.9 L -6.9 -51.9 Q -6.9 -49.3 -6.3 -48.4 L -6.3 -48.4 L -6.3 -48.4 Q -5.7 -47.6 -4.1 -47.6 L -4.1 -47.6 L -4.1 -47.6 Q -3 -47.6 -0.7 -47.8 L -0.7 -47.8 L -0.5 -47.5 L -1.1 -44.6 L -1.1 -44.6 Q -2 -44.6 -2.5 -44.6 L -2.5 -44.6 L -2.5 -44.6 Q -7 -44.8 -9.5 -44.8 L -9.5 -44.8 L -9.5 -44.8 Q -12.6 -44.8 -16.9 -44 L -16.9 -44 Z M 23.4 -46.6 L 23.4 -46.6 Q 25.3 -47.1 26.2 -48.1 L 26.2 -48.1 L 26.2 -48.1 Q 27 -49.1 27 -50.8 L 27 -50.8 L 27.2 -63.4 L 27.2 -63.4 Q 27.2 -66.6 25.9 -68.4 L 25.9 -68.4 L 25.9 -68.4 Q 24.5 -70.1 21.9 -70.1 L 21.9 -70.1 L 21.9 -70.1 Q 19.9 -70.1 17.8 -69 L 17.8 -69 L 17.8 -69 Q 15.7 -68 14.1 -66.8 L 14.1 -66.8 L 14.1 -66.8 Q 13.5 -53.5 13.5 -51 L 13.5 -51 L 13.5 -51 Q 13.5 -49 14 -48.2 L 14 -48.2 L 14 -48.2 Q 14.5 -47.4 15.8 -47.4 L 15.8 -47.4 L 15.8 -47.4 Q 16.5 -47.4 17.1 -47.5 L 17.1 -47.5 L 17.1 -47.5 Q 17.8 -47.6 18 -47.6 L 18 -47.6 L 18.2 -47.3 L 17.6 -44.6 L 17.6 -44.6 Q 17 -44.6 15.3 -44.7 L 15.3 -44.7 L 15.3 -44.7 Q 13.7 -44.8 11.8 -44.8 L 11.8 -44.8 L 11.8 -44.8 Q 9.6 -44.8 7.8 -44.7 L 7.8 -44.7 L 7.8 -44.7 Q 6.1 -44.6 5.4 -44.6 L 5.4 -44.6 L 5.8 -47.3 L 5.8 -47.3 Q 7.7 -47.4 8.4 -48.2 L 8.4 -48.2 L 8.4 -48.2 Q 9.1 -49 9.1 -50.8 L 9.1 -50.8 L 9.1 -66.4 L 9.1 -66.4 Q 9.1 -68.6 8.4 -69.4 L 8.4 -69.4 L 8.4 -69.4 Q 7.7 -70.3 6 -70.3 L 6 -70.3 L 5.3 -70.3 L 5.1 -70.5 L 5.3 -72.7 L 5.3 -72.7 Q 8 -73.1 10.8 -73.7 L 10.8 -73.7 L 10.8 -73.7 Q 13.5 -74.3 14.2 -74.5 L 14.2 -74.5 L 14.6 -74 L 14.6 -74 Q 14.5 -73.6 14.2 -72.4 L 14.2 -72.4 L 14.2 -72.4 Q 14 -71.1 13.9 -69.8 L 13.9 -69.8 L 14.1 -69.6 L 14.1 -69.6 Q 21.2 -74.5 23.5 -74.5 L 23.5 -74.5 L 23.5 -74.5 Q 26.5 -74.5 28.6 -73.1 L 28.6 -73.1 L 28.6 -73.1 Q 30.8 -71.8 31.7 -69.4 L 31.7 -69.4 L 31.7 -69.4 Q 34 -71.1 36.8 -72.8 L 36.8 -72.8 L 36.8 -72.8 Q 39.7 -74.5 41.3 -74.5 L 41.3 -74.5 L 41.3 -74.5 Q 45.4 -74.5 47.7 -72.2 L 47.7 -72.2 L 47.7 -72.2 Q 50.1 -70 50.1 -66.2 L 50.1 -66.2 L 50.1 -66.2 Q 50.1 -65.6 49.7 -60.3 L 49.7 -60.3 L 49.7 -60.3 Q 49.2 -53.7 49.2 -51 L 49.2 -51 L 49.2 -51 Q 49.2 -49 49.7 -48.2 L 49.7 -48.2 L 49.7 -48.2 Q 50.2 -47.4 51.5 -47.4 L 51.5 -47.4 L 51.5 -47.4 Q 52.2 -47.4 52.8 -47.5 L 52.8 -47.5 L 52.8 -47.5 Q 53.5 -47.6 53.7 -47.6 L 53.7 -47.6 L 53.9 -47.3 L 53.3 -44.6 L 53.3 -44.6 Q 52.7 -44.6 51 -44.7 L 51 -44.7 L 51 -44.7 Q 49.4 -44.8 47.5 -44.8 L 47.5 -44.8 L 47.5 -44.8 Q 45.8 -44.8 43.8 -44.6 L 43.8 -44.6 L 43.8 -44.6 Q 41.8 -44.4 41.1 -44.4 L 41.1 -44.4 L 41.4 -47 L 41.4 -47 Q 43.3 -47.3 44.1 -48.1 L 44.1 -48.1 L 44.1 -48.1 Q 44.8 -49 44.8 -50.8 L 44.8 -50.8 L 45.1 -63.4 L 45.1 -63.4 Q 45.1 -66.6 43.7 -68.4 L 43.7 -68.4 L 43.7 -68.4 Q 42.3 -70.1 39.8 -70.1 L 39.8 -70.1 L 39.8 -70.1 Q 36.5 -70.1 32 -66.9 L 32 -66.9 L 31.3 -51 L 31.3 -51 Q 31.3 -49.2 31.8 -48.3 L 31.8 -48.3 L 31.8 -48.3 Q 32.4 -47.4 33.6 -47.4 L 33.6 -47.4 L 33.6 -47.4 Q 34.3 -47.4 34.9 -47.5 L 34.9 -47.5 L 34.9 -47.5 Q 35.6 -47.6 35.8 -47.6 L 35.8 -47.6 L 35.9 -47.3 L 35.4 -44.6 L 35.4 -44.6 Q 34.9 -44.6 33.3 -44.7 L 33.3 -44.7 L 33.3 -44.7 Q 31.7 -44.8 29.7 -44.8 L 29.7 -44.8 L 29.7 -44.8 Q 28.1 -44.8 25.9 -44.4 L 25.9 -44.4 L 25.9 -44.4 Q 23.8 -44.1 23.1 -44 L 23.1 -44 L 23.4 -46.6 Z M 79.7 -44 L 79.7 -44 Q 74.5 -44 74 -49.2 L 74 -49.2 L 73.7 -49.2 L 73.7 -49.2 Q 71.4 -46.9 69.5 -45.6 L 69.5 -45.6 L 69.5 -45.6 Q 67.6 -44.2 66.7 -44.2 L 66.7 -44.2 L 66.7 -44.2 Q 63.1 -44.2 60.8 -46.5 L 60.8 -46.5 L 60.8 -46.5 Q 58.5 -48.7 58.5 -52.2 L 58.5 -52.2 L 58.5 -52.2 Q 58.5 -54 59.4 -55.4 L 59.4 -55.4 L 59.4 -55.4 Q 60.3 -56.9 61.9 -57.3 L 61.9 -57.3 L 74 -60.6 L 74.1 -63.4 L 74.1 -63.4 Q 74.1 -66.6 72.6 -68.4 L 72.6 -68.4 L 72.6 -68.4 Q 71.1 -70.2 68.5 -70.2 L 68.5 -70.2 L 68.5 -70.2 Q 66.7 -70.2 64.7 -69.4 L 64.7 -69.4 L 64.7 -69.4 Q 62.7 -68.6 60.8 -67 L 60.8 -67 L 60.5 -67.2 L 59.7 -70 L 59.7 -70 Q 62.7 -71.7 65.7 -73.1 L 65.7 -73.1 L 65.7 -73.1 Q 68.8 -74.5 70.1 -74.5 L 70.1 -74.5 L 70.1 -74.5 Q 74.3 -74.5 76.6 -72.3 L 76.6 -72.3 L 76.6 -72.3 Q 79 -70.1 79 -66.2 L 79 -66.2 L 79 -66.2 Q 79 -64.8 78.6 -60.4 L 78.6 -60.4 L 78.6 -60.4 Q 77.9 -53.4 77.9 -51.5 L 77.9 -51.5 L 77.9 -51.5 Q 77.9 -50.1 78.6 -49.3 L 78.6 -49.3 L 78.6 -49.3 Q 79.3 -48.5 80.5 -48.5 L 80.5 -48.5 L 80.5 -48.5 Q 81.5 -48.5 82.6 -49 L 82.6 -49 L 82.6 -49 Q 83.7 -49.5 84.3 -50.1 L 84.3 -50.1 L 85.2 -49.1 L 85.2 -49.1 Q 84.3 -47.5 82.8 -46 L 82.8 -46 L 82.8 -46 Q 81.3 -44.5 79.7 -44 L 79.7 -44 Z M 67.8 -48.6 L 67.8 -48.6 Q 69 -48.6 70.6 -49.5 L 70.6 -49.5 L 70.6 -49.5 Q 72.2 -50.3 73.6 -51.7 L 73.6 -51.7 L 73.9 -58.2 L 65.2 -55.6 L 65.2 -55.6 Q 63.3 -55 63.3 -52.9 L 63.3 -52.9 L 63.3 -52.9 Q 63.3 -51 64.6 -49.8 L 64.6 -49.8 L 64.6 -49.8 Q 65.8 -48.6 67.8 -48.6 L 67.8 -48.6 Z M 116.1 -71.8 L 116.1 -71.8 Q 114.9 -71.6 110.6 -71.3 L 110.6 -71.3 L 110.3 -70.9 L 110.3 -70.9 Q 112.9 -68.1 112.9 -64.4 L 112.9 -64.4 L 112.9 -64.4 Q 112.9 -61.3 111.2 -58.7 L 111.2 -58.7 L 111.2 -58.7 Q 109.5 -56.1 106.6 -54.6 L 106.6 -54.6 L 106.6 -54.6 Q 103.7 -53.1 100.3 -53.1 L 100.3 -53.1 L 100.3 -53.1 Q 98.4 -53.1 96.7 -53.6 L 96.7 -53.6 L 96.7 -53.6 Q 95.2 -52.8 94.6 -52.1 L 94.6 -52.1 L 94.6 -52.1 Q 93.9 -51.3 93.9 -50.6 L 93.9 -50.6 L 93.9 -50.6 Q 93.9 -49.2 95.9 -48.6 L 95.9 -48.6 L 95.9 -48.6 Q 97.9 -48 102.1 -47.5 L 102.1 -47.5 L 102.1 -47.5 Q 106.3 -47 108.8 -46.5 L 108.8 -46.5 L 108.8 -46.5 Q 111.4 -45.9 113.3 -44.5 L 113.3 -44.5 L 113.3 -44.5 Q 115.1 -43.1 115.1 -40.6 L 115.1 -40.6 L 115.1 -40.6 Q 115.1 -37.8 112.8 -35.2 L 112.8 -35.2 L 112.8 -35.2 Q 110.6 -32.5 106.9 -30.9 L 106.9 -30.9 L 106.9 -30.9 Q 103.2 -29.3 99.3 -29.3 L 99.3 -29.3 L 99.3 -29.3 Q 94.8 -29.3 92.2 -31.5 L 92.2 -31.5 L 92.2 -31.5 Q 89.6 -33.8 89.6 -37.8 L 89.6 -37.8 L 89.6 -37.8 Q 90.5 -38.9 92.2 -40.5 L 92.2 -40.5 L 92.2 -40.5 Q 93.9 -42 95.9 -43.5 L 95.9 -43.5 L 95.9 -43.9 L 95.9 -43.9 Q 92.6 -44.5 90.8 -46.1 L 90.8 -46.1 L 90.8 -46.1 Q 89 -47.7 88.9 -50.2 L 88.9 -50.2 L 88.9 -50.2 Q 91.4 -52.6 94.3 -54.3 L 94.3 -54.3 L 94.3 -54.5 L 94.3 -54.5 Q 92.1 -55.8 90.8 -58 L 90.8 -58 L 90.8 -58 Q 89.6 -60.1 89.6 -62.8 L 89.6 -62.8 L 89.6 -62.8 Q 89.6 -65.9 91.2 -68.6 L 91.2 -68.6 L 91.2 -68.6 Q 92.8 -71.3 95.6 -72.9 L 95.6 -72.9 L 95.6 -72.9 Q 98.3 -74.5 101.5 -74.5 L 101.5 -74.5 L 101.5 -74.5 Q 103 -74.5 105.1 -74.1 L 105.1 -74.1 L 105.1 -74.1 Q 106.7 -73.7 107.8 -73.7 L 107.8 -73.7 L 107.8 -73.7 Q 110.6 -74.1 116.6 -75.7 L 116.6 -75.7 L 116.8 -75.4 L 116.1 -71.8 Z M 101.7 -55.9 L 101.7 -55.9 Q 104.7 -55.9 106.4 -57.7 L 106.4 -57.7 L 106.4 -57.7 Q 108.1 -59.6 108.1 -62.9 L 108.1 -62.9 L 108.1 -62.9 Q 108.1 -66.6 106 -68.9 L 106 -68.9 L 106 -68.9 Q 104 -71.2 100.7 -71.2 L 100.7 -71.2 L 100.7 -71.2 Q 97.8 -71.2 96.1 -69.3 L 96.1 -69.3 L 96.1 -69.3 Q 94.4 -67.3 94.4 -64.1 L 94.4 -64.1 L 94.4 -64.1 Q 94.4 -60.4 96.4 -58.2 L 96.4 -58.2 L 96.4 -58.2 Q 98.5 -55.9 101.7 -55.9 L 101.7 -55.9 Z M 98.7 -43.4 L 98.7 -43.4 Q 96.7 -42.1 95.7 -40.4 L 95.7 -40.4 L 95.7 -40.4 Q 94.7 -38.8 94.7 -37.2 L 94.7 -37.2 L 94.7 -37.2 Q 94.7 -35 96.6 -33.7 L 96.6 -33.7 L 96.6 -33.7 Q 98.4 -32.4 101.5 -32.4 L 101.5 -32.4 L 101.5 -32.4 Q 103.9 -32.4 106.1 -33.3 L 106.1 -33.3 L 106.1 -33.3 Q 108.3 -34.1 109.7 -35.6 L 109.7 -35.6 L 109.7 -35.6 Q 111 -37.1 111 -38.7 L 111 -38.7 L 111 -38.7 Q 111 -40 110.1 -40.8 L 110.1 -40.8 L 110.1 -40.8 Q 109.1 -41.6 106.5 -42.1 L 106.5 -42.1 L 106.5 -42.1 Q 103.9 -42.7 98.7 -43.4 L 98.7 -43.4 Z M 133.5 -44 L 133.5 -44 Q 129.5 -44 126.4 -45.7 L 126.4 -45.7 L 126.4 -45.7 Q 123.4 -47.5 121.7 -50.7 L 121.7 -50.7 L 121.7 -50.7 Q 120 -54 120 -58.1 L 120 -58.1 L 120 -58.1 Q 120 -62.4 122 -66.2 L 122 -66.2 L 122 -66.2 Q 123.9 -70 127.2 -72.2 L 127.2 -72.2 L 127.2 -72.2 Q 130.5 -74.5 134.2 -74.5 L 134.2 -74.5 L 134.2 -74.5 Q 138.9 -74.5 141.3 -72.1 L 141.3 -72.1 L 141.3 -72.1 Q 143.7 -69.7 143.7 -65.2 L 143.7 -65.2 L 143.7 -65.2 Q 143.7 -63.3 143.3 -62 L 143.3 -62 L 142.5 -61.3 L 124.8 -61.3 L 124.8 -61.3 Q 124.8 -55.1 127.3 -51.7 L 127.3 -51.7 L 127.3 -51.7 Q 129.8 -48.3 134.4 -48.3 L 134.4 -48.3 L 134.4 -48.3 Q 138 -48.3 142.2 -50.3 L 142.2 -50.3 L 142.6 -50.2 L 143.3 -48.3 L 143.3 -48.3 Q 141 -46.7 138.2 -45.3 L 138.2 -45.3 L 138.2 -45.3 Q 135.4 -44 133.5 -44 L 133.5 -44 Z M 125.1 -63.6 L 136.7 -64.2 L 136.7 -64.2 Q 137.6 -64.3 138 -64.7 L 138 -64.7 L 138 -64.7 Q 138.3 -65 138.3 -65.9 L 138.3 -65.9 L 138.3 -65.9 Q 138.3 -68.5 136.9 -69.8 L 136.9 -69.8 L 136.9 -69.8 Q 135.5 -71.2 133 -71.2 L 133 -71.2 L 133 -71.2 Q 130 -71.2 127.8 -69.1 L 127.8 -69.1 L 127.8 -69.1 Q 125.7 -67.1 125.1 -63.6 L 125.1 -63.6 Z M 157.4 -44 L 157.4 -44 Q 155.3 -44 153.6 -44.3 L 153.6 -44.3 L 153.6 -44.3 Q 151.9 -44.6 151 -44.9 L 151 -44.9 L 151 -44.9 Q 150 -45.2 149.7 -45.3 L 149.7 -45.3 L 149.5 -45.8 L 149.5 -45.8 Q 149.7 -46.7 150 -49.7 L 150 -49.7 L 150 -49.7 Q 150.2 -52.8 150.3 -54.4 L 150.3 -54.4 L 152.6 -54.7 L 152.6 -54.7 Q 152.6 -50.5 154 -48.7 L 154 -48.7 L 154 -48.7 Q 155.4 -47 158.8 -47 L 158.8 -47 L 158.8 -47 Q 161.2 -47 162.9 -48.1 L 162.9 -48.1 L 162.9 -48.1 Q 164.5 -49.2 164.5 -50.8 L 164.5 -50.8 L 164.5 -50.8 Q 164.5 -52.4 163 -53.7 L 163 -53.7 L 163 -53.7 Q 161.5 -55 157.1 -57.4 L 157.1 -57.4 L 157.1 -57.4 Q 153.4 -59.2 151.8 -61.1 L 151.8 -61.1 L 151.8 -61.1 Q 150.1 -63.1 150.1 -65.4 L 150.1 -65.4 L 150.1 -65.4 Q 150.1 -67.9 151.7 -70 L 151.7 -70 L 151.7 -70 Q 153.2 -72.1 155.9 -73.3 L 155.9 -73.3 L 155.9 -73.3 Q 158.6 -74.5 161.9 -74.5 L 161.9 -74.5 L 161.9 -74.5 Q 163.4 -74.5 164.8 -74.2 L 164.8 -74.2 L 164.8 -74.2 Q 166.2 -74 167.1 -73.7 L 167.1 -73.7 L 167.1 -73.7 Q 168 -73.5 168.3 -73.4 L 168.3 -73.4 L 168.4 -73.1 L 168.4 -73.1 Q 168.3 -72.5 167.8 -70.2 L 167.8 -70.2 L 167.8 -70.2 Q 167.4 -67.9 167.2 -65.3 L 167.2 -65.3 L 164.8 -65.1 L 164.8 -65.1 Q 164.8 -65.3 164.9 -65.9 L 164.9 -65.9 L 164.9 -65.9 Q 165 -66.5 165 -67 L 165 -67 L 165 -67 Q 165 -69.3 163.7 -70.3 L 163.7 -70.3 L 163.7 -70.3 Q 162.5 -71.4 159.7 -71.4 L 159.7 -71.4 L 159.7 -71.4 Q 157.5 -71.4 156 -70.4 L 156 -70.4 L 156 -70.4 Q 154.5 -69.3 154.5 -67.9 L 154.5 -67.9 L 154.5 -67.9 Q 154.5 -66.3 155.8 -65 L 155.8 -65 L 155.8 -65 Q 157.2 -63.6 160.1 -62.1 L 160.1 -62.1 L 160.1 -62.1 Q 165.3 -59.3 167.2 -57.5 L 167.2 -57.5 L 167.2 -57.5 Q 169.1 -55.6 169.1 -53.1 L 169.1 -53.1 L 169.1 -53.1 Q 169.1 -50.7 167.5 -48.6 L 167.5 -48.6 L 167.5 -48.6 Q 165.9 -46.5 163.1 -45.2 L 163.1 -45.2 L 163.1 -45.2 Q 160.4 -44 157.4 -44 L 157.4 -44 Z M 206.1 -44 L 206.1 -44 Q 200.4 -44 196.2 -46.4 L 196.2 -46.4 L 196.2 -46.4 Q 192 -48.9 189.7 -53.3 L 189.7 -53.3 L 189.7 -53.3 Q 187.4 -57.7 187.4 -63.8 L 187.4 -63.8 L 187.4 -63.8 Q 187.4 -70.4 190.2 -75.5 L 190.2 -75.5 L 190.2 -75.5 Q 193 -80.6 198.1 -83.4 L 198.1 -83.4 L 198.1 -83.4 Q 203.2 -86.3 209.8 -86.3 L 209.8 -86.3 L 209.8 -86.3 Q 212.2 -86.3 215 -85.9 L 215 -85.9 L 215 -85.9 Q 217.7 -85.6 219.7 -85.2 L 219.7 -85.2 L 219.7 -85.2 Q 221.7 -84.9 222.2 -84.8 L 222.2 -84.8 L 222.5 -84.4 L 222.5 -84.4 Q 222.4 -84 222.1 -82.5 L 222.1 -82.5 L 222.1 -82.5 Q 221.7 -81 221.4 -78.7 L 221.4 -78.7 L 221.4 -78.7 Q 221 -76.3 220.8 -73.7 L 220.8 -73.7 L 217.8 -73.4 L 217.8 -73.4 Q 217.9 -73.7 218 -74.7 L 218 -74.7 L 218 -74.7 Q 218 -75.6 218 -76.9 L 218 -76.9 L 218 -76.9 Q 218 -79.8 215.8 -81.2 L 215.8 -81.2 L 215.8 -81.2 Q 213.5 -82.5 208.4 -82.5 L 208.4 -82.5 L 208.4 -82.5 Q 201.1 -82.5 197 -78.1 L 197 -78.1 L 197 -78.1 Q 192.9 -73.7 192.9 -65.8 L 192.9 -65.8 L 192.9 -65.8 Q 192.9 -60.2 194.7 -56 L 194.7 -56 L 194.7 -56 Q 196.5 -51.8 199.8 -49.5 L 199.8 -49.5 L 199.8 -49.5 Q 203.2 -47.2 207.5 -47.2 L 207.5 -47.2 L 207.5 -47.2 Q 209.8 -47.2 211.8 -47.7 L 211.8 -47.7 L 211.8 -47.7 Q 213.7 -48.3 215 -48.9 L 215 -48.9 L 215 -48.9 Q 216.3 -49.6 216.3 -49.6 L 216.3 -49.6 L 216.3 -57.4 L 216.3 -57.4 Q 216.3 -59.6 215.6 -60.2 L 215.6 -60.2 L 215.6 -60.2 Q 215 -60.9 212.8 -60.9 L 212.8 -60.9 L 208.4 -60.9 L 208.2 -61.1 L 208.8 -64.3 L 208.8 -64.3 Q 209.6 -64.3 212.1 -64.2 L 212.1 -64.2 L 212.1 -64.2 Q 214.6 -64.1 216.9 -64.1 L 216.9 -64.1 L 216.9 -64.1 Q 218.7 -64.1 220.3 -64.2 L 220.3 -64.2 L 220.3 -64.2 Q 222 -64.3 222.4 -64.4 L 222.4 -64.4 L 222.7 -63 L 222.7 -63 Q 221.5 -62 221.1 -60 L 221.1 -60 L 221.1 -60 Q 220.7 -57.9 220.7 -53.1 L 220.7 -53.1 L 220.7 -53.1 Q 220.7 -49.4 221.2 -47.5 L 221.2 -47.5 L 220.8 -46.9 L 220.8 -46.9 Q 220.8 -46.9 218.5 -46.1 L 218.5 -46.1 L 218.5 -46.1 Q 216.2 -45.3 212.9 -44.6 L 212.9 -44.6 L 212.9 -44.6 Q 209.6 -44 206.1 -44 L 206.1 -44 Z M 251.3 -44 L 251.3 -44 Q 246.1 -44 245.6 -49.2 L 245.6 -49.2 L 245.4 -49.2 L 245.4 -49.2 Q 243 -46.9 241.2 -45.6 L 241.2 -45.6 L 241.2 -45.6 Q 239.3 -44.2 238.3 -44.2 L 238.3 -44.2 L 238.3 -44.2 Q 234.7 -44.2 232.4 -46.5 L 232.4 -46.5 L 232.4 -46.5 Q 230.1 -48.7 230.1 -52.2 L 230.1 -52.2 L 230.1 -52.2 Q 230.1 -54 231 -55.4 L 231 -55.4 L 231 -55.4 Q 232 -56.9 233.5 -57.3 L 233.5 -57.3 L 245.7 -60.6 L 245.7 -63.4 L 245.7 -63.4 Q 245.7 -66.6 244.3 -68.4 L 244.3 -68.4 L 244.3 -68.4 Q 242.8 -70.2 240.1 -70.2 L 240.1 -70.2 L 240.1 -70.2 Q 238.3 -70.2 236.3 -69.4 L 236.3 -69.4 L 236.3 -69.4 Q 234.3 -68.6 232.4 -67 L 232.4 -67 L 232.1 -67.2 L 231.3 -70 L 231.3 -70 Q 234.3 -71.7 237.4 -73.1 L 237.4 -73.1 L 237.4 -73.1 Q 240.4 -74.5 241.8 -74.5 L 241.8 -74.5 L 241.8 -74.5 Q 245.9 -74.5 248.3 -72.3 L 248.3 -72.3 L 248.3 -72.3 Q 250.7 -70.1 250.7 -66.2 L 250.7 -66.2 L 250.7 -66.2 Q 250.7 -64.8 250.2 -60.4 L 250.2 -60.4 L 250.2 -60.4 Q 249.5 -53.4 249.5 -51.5 L 249.5 -51.5 L 249.5 -51.5 Q 249.5 -50.1 250.2 -49.3 L 250.2 -49.3 L 250.2 -49.3 Q 250.9 -48.5 252.1 -48.5 L 252.1 -48.5 L 252.1 -48.5 Q 253.2 -48.5 254.2 -49 L 254.2 -49 L 254.2 -49 Q 255.3 -49.5 256 -50.1 L 256 -50.1 L 256.9 -49.1 L 256.9 -49.1 Q 255.9 -47.5 254.4 -46 L 254.4 -46 L 254.4 -46 Q 252.9 -44.5 251.3 -44 L 251.3 -44 Z M 239.4 -48.6 L 239.4 -48.6 Q 240.6 -48.6 242.2 -49.5 L 242.2 -49.5 L 242.2 -49.5 Q 243.9 -50.3 245.2 -51.7 L 245.2 -51.7 L 245.5 -58.2 L 236.8 -55.6 L 236.8 -55.6 Q 235 -55 235 -52.9 L 235 -52.9 L 235 -52.9 Q 235 -51 236.2 -49.8 L 236.2 -49.8 L 236.2 -49.8 Q 237.5 -48.6 239.4 -48.6 L 239.4 -48.6 Z M 259 -44 L 259.3 -46.6 L 259.3 -46.6 Q 261.1 -47.1 261.8 -47.9 L 261.8 -47.9 L 261.8 -47.9 Q 262.6 -48.7 262.7 -49.7 L 262.7 -49.7 L 262.7 -49.7 Q 262.9 -50.8 262.9 -53.4 L 262.9 -53.4 L 262.9 -84.8 L 262.9 -84.8 Q 262.9 -86.8 262.4 -87.5 L 262.4 -87.5 L 262.4 -87.5 Q 262 -88.2 260.6 -88.2 L 260.6 -88.2 L 260.6 -88.2 Q 260.3 -88.2 259.1 -88.1 L 259.1 -88.1 L 258.9 -88.2 L 259.2 -90.4 L 259.2 -90.4 Q 264.6 -91.2 268.6 -92.2 L 268.6 -92.2 L 269 -91.4 L 269 -91.4 Q 268.3 -90.3 267.8 -77.7 L 267.8 -77.7 L 267.8 -77.7 Q 267.2 -65.1 267.2 -51 L 267.2 -51 L 267.2 -51 Q 267.2 -49.1 267.8 -48.3 L 267.8 -48.3 L 267.8 -48.3 Q 268.3 -47.4 269.5 -47.4 L 269.5 -47.4 L 271.7 -47.6 L 271.8 -47.3 L 271.3 -44.6 L 271.3 -44.6 Q 267.1 -44.8 265.6 -44.8 L 265.6 -44.8 L 265.6 -44.8 Q 263.5 -44.8 259 -44 L 259 -44 Z M 274.7 -44 L 274.9 -46.6 L 274.9 -46.6 Q 276.7 -47.1 277.4 -47.9 L 277.4 -47.9 L 277.4 -47.9 Q 278.2 -48.7 278.3 -49.7 L 278.3 -49.7 L 278.3 -49.7 Q 278.5 -50.8 278.5 -53.4 L 278.5 -53.4 L 278.5 -84.8 L 278.5 -84.8 Q 278.5 -86.8 278.1 -87.5 L 278.1 -87.5 L 278.1 -87.5 Q 277.6 -88.2 276.2 -88.2 L 276.2 -88.2 L 276.2 -88.2 Q 275.9 -88.2 274.7 -88.1 L 274.7 -88.1 L 274.5 -88.2 L 274.8 -90.4 L 274.8 -90.4 Q 280.2 -91.2 284.3 -92.2 L 284.3 -92.2 L 284.6 -91.4 L 284.6 -91.4 Q 283.9 -90.3 283.4 -77.7 L 283.4 -77.7 L 283.4 -77.7 Q 282.9 -65.1 282.9 -51 L 282.9 -51 L 282.9 -51 Q 282.9 -49.1 283.4 -48.3 L 283.4 -48.3 L 283.4 -48.3 Q 283.9 -47.4 285.1 -47.4 L 285.1 -47.4 L 287.3 -47.6 L 287.5 -47.3 L 287 -44.6 L 287 -44.6 Q 282.7 -44.8 281.3 -44.8 L 281.3 -44.8 L 281.3 -44.8 Q 279.1 -44.8 274.7 -44 L 274.7 -44 Z M 304.3 -44 L 304.3 -44 Q 300.3 -44 297.3 -45.7 L 297.3 -45.7 L 297.3 -45.7 Q 294.2 -47.5 292.5 -50.7 L 292.5 -50.7 L 292.5 -50.7 Q 290.9 -54 290.9 -58.1 L 290.9 -58.1 L 290.9 -58.1 Q 290.9 -62.4 292.8 -66.2 L 292.8 -66.2 L 292.8 -66.2 Q 294.8 -70 298 -72.2 L 298 -72.2 L 298 -72.2 Q 301.3 -74.5 305 -74.5 L 305 -74.5 L 305 -74.5 Q 309.7 -74.5 312.1 -72.1 L 312.1 -72.1 L 312.1 -72.1 Q 314.5 -69.7 314.5 -65.2 L 314.5 -65.2 L 314.5 -65.2 Q 314.5 -63.3 314.2 -62 L 314.2 -62 L 313.3 -61.3 L 295.7 -61.3 L 295.7 -61.3 Q 295.6 -55.1 298.1 -51.7 L 298.1 -51.7 L 298.1 -51.7 Q 300.6 -48.3 305.2 -48.3 L 305.2 -48.3 L 305.2 -48.3 Q 308.8 -48.3 313 -50.3 L 313 -50.3 L 313.4 -50.2 L 314.1 -48.3 L 314.1 -48.3 Q 311.8 -46.7 309 -45.3 L 309 -45.3 L 309 -45.3 Q 306.2 -44 304.3 -44 L 304.3 -44 Z M 295.9 -63.6 L 307.5 -64.2 L 307.5 -64.2 Q 308.5 -64.3 308.8 -64.7 L 308.8 -64.7 L 308.8 -64.7 Q 309.1 -65 309.1 -65.9 L 309.1 -65.9 L 309.1 -65.9 Q 309.1 -68.5 307.7 -69.8 L 307.7 -69.8 L 307.7 -69.8 Q 306.3 -71.2 303.8 -71.2 L 303.8 -71.2 L 303.8 -71.2 Q 300.8 -71.2 298.6 -69.1 L 298.6 -69.1 L 298.6 -69.1 Q 296.5 -67.1 295.9 -63.6 L 295.9 -63.6 Z M 321 -47.1 L 321 -47.1 Q 322.9 -47.3 323.6 -48.3 L 323.6 -48.3 L 323.6 -48.3 Q 324.2 -49.4 324.2 -52.4 L 324.2 -52.4 L 324.2 -66.5 L 324.2 -66.5 Q 324.2 -68.6 323.6 -69.5 L 323.6 -69.5 L 323.6 -69.5 Q 323 -70.4 321.8 -70.4 L 321.8 -70.4 L 321.8 -70.4 Q 321.3 -70.4 320.9 -70.3 L 320.9 -70.3 L 320.9 -70.3 Q 320.6 -70.2 320.4 -70.2 L 320.4 -70.2 L 320.1 -70.6 L 320.3 -72.6 L 320.3 -72.6 Q 322.7 -73 325.4 -73.7 L 325.4 -73.7 L 325.4 -73.7 Q 328.2 -74.3 328.9 -74.5 L 328.9 -74.5 L 329.4 -74.1 L 329.4 -74.1 Q 329.3 -73.6 329 -71.5 L 329 -71.5 L 329 -71.5 Q 328.7 -69.4 328.8 -67.5 L 328.8 -67.5 L 329.1 -67.3 L 329.1 -67.3 Q 331 -70.4 333.6 -72.3 L 333.6 -72.3 L 333.6 -72.3 Q 336.2 -74.2 338.1 -74.2 L 338.1 -74.2 L 338.1 -74.2 Q 339 -74.2 339.5 -74.1 L 339.5 -74.1 L 339.5 -74.1 Q 339.9 -74 340.1 -73.9 L 340.1 -73.9 L 340.3 -73.7 L 340.3 -73.7 Q 340.1 -72.8 339.7 -69.9 L 339.7 -69.9 L 339.7 -69.9 Q 339.3 -67 339.2 -64.5 L 339.2 -64.5 L 336.7 -64.3 L 336.7 -64.3 Q 336.7 -67 336.4 -67.8 L 336.4 -67.8 L 336.4 -67.8 Q 336 -68.7 335 -68.7 L 335 -68.7 L 335 -68.7 Q 333.6 -68.7 332 -67.5 L 332 -67.5 L 332 -67.5 Q 330.4 -66.3 329.1 -64.3 L 329.1 -64.3 L 329.1 -64.3 Q 329 -62.5 328.8 -58.2 L 328.8 -58.2 L 328.8 -58.2 Q 328.6 -53.9 328.6 -51.3 L 328.6 -51.3 L 328.6 -51.3 Q 328.6 -49.1 329.2 -48.3 L 329.2 -48.3 L 329.2 -48.3 Q 329.8 -47.6 331.6 -47.6 L 331.6 -47.6 L 331.6 -47.6 Q 332.5 -47.6 333.3 -47.6 L 333.3 -47.6 L 333.3 -47.6 Q 334.1 -47.7 334.4 -47.7 L 334.4 -47.7 L 334.5 -47.4 L 333.9 -44.6 L 333.9 -44.6 Q 333.3 -44.6 331.4 -44.7 L 331.4 -44.7 L 331.4 -44.7 Q 329.4 -44.8 327.4 -44.8 L 327.4 -44.8 L 327.4 -44.8 Q 325 -44.8 323.1 -44.7 L 323.1 -44.7 L 323.1 -44.7 Q 321.2 -44.6 320.7 -44.5 L 320.7 -44.5 L 321 -47.1 Z M 344 -29.3 L 344 -29.3 Q 343.5 -29.3 342.4 -30.8 L 342.4 -30.8 L 342.4 -30.8 Q 341.2 -32.3 341.2 -33 L 341.2 -33 L 341.5 -33.4 L 341.5 -33.4 Q 345.1 -33.4 348.2 -36.4 L 348.2 -36.4 L 348.2 -36.4 Q 351.3 -39.4 353.6 -44.8 L 353.6 -44.8 L 353.6 -44.8 Q 348.6 -60.4 345.6 -68.3 L 345.6 -68.3 L 345.6 -68.3 Q 345.1 -69.9 344 -70.6 L 344 -70.6 L 344 -70.6 Q 343 -71.3 341.3 -71.4 L 341.3 -71.4 L 341.2 -71.6 L 341.5 -73.7 L 346.9 -73.7 L 346.9 -73.7 Q 349.2 -73.7 351.6 -73.9 L 351.6 -73.9 L 351.6 -73.9 Q 353.9 -74.1 354.5 -74.1 L 354.5 -74.1 L 354.7 -73.8 L 354.3 -71.8 L 354.3 -71.8 Q 352.1 -71.8 351.4 -71.4 L 351.4 -71.4 L 351.4 -71.4 Q 350.6 -71.1 350.6 -70.2 L 350.6 -70.2 L 350.6 -70.2 Q 350.6 -69.1 351.9 -64.9 L 351.9 -64.9 L 351.9 -64.9 Q 353.1 -60.6 354.5 -56.3 L 354.5 -56.3 L 354.5 -56.3 Q 355.8 -52.1 356.3 -50.8 L 356.3 -50.8 L 356.5 -50.8 L 356.5 -50.8 Q 363.9 -68.4 363.9 -69.9 L 363.9 -69.9 L 363.9 -69.9 Q 363.9 -71.6 361.4 -71.6 L 361.4 -71.6 L 358.5 -71.6 L 358.4 -71.8 L 358.8 -73.9 L 358.8 -73.9 Q 359.3 -73.9 361.3 -73.8 L 361.3 -73.8 L 361.3 -73.8 Q 363.3 -73.7 365.3 -73.7 L 365.3 -73.7 L 370.7 -73.7 L 370.3 -71.4 L 370.3 -71.4 Q 368.9 -71.1 368.1 -70.4 L 368.1 -70.4 L 368.1 -70.4 Q 367.4 -69.7 366.7 -67.7 L 366.7 -67.7 L 358.6 -48.3 L 358.6 -48.3 Q 355.2 -40.2 353.1 -36.3 L 353.1 -36.3 L 353.1 -36.3 Q 351 -32.4 349 -30.8 L 349 -30.8 L 349 -30.8 Q 346.9 -29.3 344 -29.3 L 344 -29.3 Z" fill="#292664"></path></g></g><style>text {
  font-size: 64px;
  font-family: Arial Black;
  dominant-baseline: central;
  text-anchor: middle;
}</style></svg>